<svg xmlns="http://www.w3.org/2000/svg" width="512" height="512" viewBox="0 0 512 512" version="1.1">
	<path d="M 240.450 19.461 C 231.784 21.035, 227.469 23.180, 225.087 27.098 C 224.083 28.748, 220.870 37.242, 217.947 45.972 L 212.632 61.846 209.101 62.509 C 207.158 62.873, 204.361 63.796, 202.885 64.560 C 198.742 66.702, 193.372 73.601, 191.982 78.566 C 190.251 84.748, 191.239 93.944, 194.203 99.248 L 196.600 103.536 194.050 108.485 C 191.870 112.715, 191.450 115.017, 191.158 124.333 C 190.752 137.314, 192.280 142.587, 197.635 146.671 C 200.660 148.978, 201.010 149.694, 200.439 152.404 C 198.919 159.622, 194.606 165.676, 181.137 179.500 C 161.952 199.188, 152.873 213.523, 145.668 235.500 C 138.286 258.020, 133.965 293.840, 136.029 315.405 C 140.906 366.337, 174.560 400.006, 231.264 410.682 C 245.544 413.371, 275.137 413.091, 289 410.137 C 356.758 395.696, 390.982 352.130, 386.011 286.644 C 382.448 239.710, 370.628 211.996, 339.404 177.368 C 328.978 165.805, 324.998 160.180, 322.365 153.286 L 320.691 148.901 324.396 145.106 C 328.383 141.023, 331 134.202, 331 127.890 C 331 125.805, 331.478 121.868, 332.063 119.141 C 333.217 113.760, 332.022 106.856, 329.433 103.950 C 328.251 102.623, 328.346 101.808, 330.099 98.266 C 332.684 93.041, 333.674 81.126, 332.026 75.060 C 329.854 67.061, 322.476 62.020, 312.916 62.006 L 309.333 62 303.241 49.250 C 299.891 42.237, 296.420 34.706, 295.527 32.514 C 292.539 25.174, 287.143 21.230, 277.201 19.123 C 270.249 17.650, 249.364 17.842, 240.450 19.461 M 249.150 34.074 C 244.557 34.590, 240.073 35.420, 239.184 35.917 C 238.289 36.418, 235.692 42.435, 233.358 49.410 L 229.148 62 260.509 62 L 291.870 62 288.049 53.750 C 285.947 49.212, 283.301 43.361, 282.168 40.746 C 280.782 37.546, 279.236 35.660, 277.439 34.977 C 273.488 33.474, 258.679 33.002, 249.150 34.074 M 209.200 79.200 C 208.540 79.860, 208 80.749, 208 81.175 C 208 81.601, 215.088 82.073, 223.750 82.225 C 238.742 82.487, 239.500 82.596, 239.500 84.500 C 239.500 86.407, 238.742 86.513, 223.250 86.775 C 205.754 87.071, 205.715 87.085, 208.110 92.343 C 208.721 93.684, 210.186 95.297, 211.364 95.927 C 214.695 97.710, 308.576 96.976, 312.140 95.140 C 315.639 93.336, 317 90.064, 317 83.453 L 317 78 263.700 78 C 223.578 78, 210.103 78.297, 209.200 79.200 M 230.013 112.951 C 210.598 113.447, 208.493 113.669, 208.189 115.250 C 207.877 116.878, 209.556 117, 232.304 117 C 253.550 117, 256.930 117.211, 258.090 118.608 C 259.218 119.967, 259.162 120.408, 257.734 121.452 C 256.456 122.387, 249.948 122.571, 231.022 122.206 L 206 121.725 206 124.351 L 206 126.977 245.750 127.239 C 284.746 127.495, 285.500 127.538, 285.500 129.500 C 285.500 131.462, 284.746 131.505, 246.250 131.762 C 212.510 131.986, 207 132.230, 207 133.493 C 207 134.301, 208.012 135.212, 209.250 135.517 C 210.488 135.823, 234.090 135.944, 261.701 135.786 C 299.025 135.573, 312.208 135.193, 313.098 134.303 C 314.315 133.085, 317.219 113.914, 316.325 113 C 315.652 112.313, 256.302 112.279, 230.013 112.951 M 214.115 158.750 C 210.959 168.991, 207.641 173.756, 193.829 187.886 C 176.291 205.828, 168.051 218.003, 161.291 235.961 C 152.624 258.984, 148.414 301.140, 152.585 323.140 C 159.478 359.497, 185.307 383.864, 227.500 393.814 C 237.314 396.129, 240.602 396.413, 258 396.454 C 274.871 396.494, 278.899 396.187, 287.881 394.176 C 340.383 382.420, 368.045 353.120, 370.653 306.500 C 371.770 286.517, 367.983 259.794, 361.307 240.551 C 354.783 221.746, 347.286 209.853, 328.500 188.510 C 315.920 174.217, 310.276 166.052, 307.120 157.579 L 305.228 152.500 296.614 152.211 C 291.876 152.052, 288 152.315, 288 152.794 C 288 153.274, 292.241 172.754, 297.425 196.083 C 310.775 256.160, 313.284 269.358, 312.626 276.016 C 310.866 293.788, 299.428 311.516, 288.382 313.588 C 282.389 314.712, 277.847 313.183, 273.394 308.544 L 269.288 304.266 266.600 307.635 C 265.121 309.488, 262.149 311.904, 259.995 313.002 C 252.325 316.916, 244.535 314.913, 238.269 307.418 L 234.689 303.135 231.173 305.818 C 226.570 309.328, 217.699 309.635, 213.323 306.435 C 208.196 302.686, 206.527 297.728, 206.614 286.500 C 206.710 273.924, 207.563 268.431, 216.006 226 C 221.869 196.538, 224.099 183.091, 227.573 156.250 L 228.123 152 222.159 152 L 216.195 152 214.115 158.750 M 242.589 159.750 C 241.494 172.118, 237.255 199.262, 233.961 215 C 225.151 257.098, 222.015 275.818, 222.006 286.372 C 222.001 292.623, 222.148 293.122, 223.637 291.887 C 226.062 289.874, 228.935 282.574, 231.005 273.168 C 232.013 268.586, 233.619 263.973, 234.574 262.918 C 237.067 260.164, 242.490 260.399, 245.482 263.391 C 247.796 265.705, 247.854 266.137, 247.290 276.831 C 246.659 288.779, 247.838 295.638, 251.016 298.514 C 252.680 300.020, 252.974 299.901, 255.381 296.745 C 258.579 292.552, 263.209 282.384, 265.415 274.711 C 266.330 271.526, 267.961 268.039, 269.039 266.961 C 271.780 264.220, 276.535 264.444, 279.545 267.455 C 282.392 270.301, 282.525 271.886, 280.556 279.448 C 279.335 284.132, 279.316 285.784, 280.433 290.088 C 281.922 295.829, 284.085 298.565, 286.425 297.667 C 288.712 296.790, 293.831 288.306, 295.535 282.568 C 298.479 272.658, 297.916 269.192, 281.088 193.759 C 276.090 171.352, 272 152.790, 272 152.509 C 272 152.229, 265.537 152, 257.638 152 L 243.276 152 242.589 159.750 M 398.500 166.438 C 386.400 171.613, 375.310 176.348, 373.856 176.960 C 368.047 179.407, 367.892 186.917, 373.573 190.640 C 376.112 192.303, 376.478 192.300, 381.368 190.574 C 393.050 186.450, 425.628 171.715, 427.250 169.821 C 429.038 167.734, 429.488 164.436, 428.379 161.545 C 427.794 160.020, 423.047 156.983, 421.300 157.015 C 420.860 157.023, 410.600 161.263, 398.500 166.438 M 96.773 167.750 C 92.039 173.142, 93.814 177.615, 102.604 182.447 C 110.387 186.725, 117.471 192.057, 127.783 201.401 C 135.705 208.579, 138.063 209.311, 142.365 205.927 C 144.392 204.333, 145 202.971, 145 200.026 C 145 196.547, 144.307 195.551, 137.419 189.118 C 117.606 170.614, 101.632 162.217, 96.773 167.750 M 316.556 198.910 C 315.676 200.333, 316.950 202.738, 319.452 204.376 C 322.847 206.601, 333.137 219.764, 337.301 227.210 C 341.918 235.466, 346.824 250.024, 347.649 257.913 C 348.344 264.564, 350.028 267.051, 352.468 265.027 C 354.136 263.642, 353.773 258.481, 351.306 248.500 C 347.218 231.959, 338.920 216.901, 327.202 204.764 C 321.123 198.468, 317.918 196.705, 316.556 198.910 M 159.219 280.750 C 158.823 281.712, 158.500 290.825, 158.500 301 C 158.500 322.469, 159.458 327.351, 166.448 341.500 C 173.819 356.419, 185.846 368.557, 200.467 375.834 C 207.236 379.203, 209 379.238, 209 376.005 C 209 374.708, 207.071 373.150, 202.750 370.958 C 182.698 360.788, 169.429 343.528, 164.941 321.777 C 162.952 312.139, 162.480 296.175, 163.891 286.268 C 164.645 280.977, 163.932 279, 161.269 279 C 160.536 279, 159.614 279.788, 159.219 280.750 M 405.308 286.010 C 401.886 287.388, 399.714 291.422, 400.491 294.958 C 401.752 300.698, 403.127 301, 428.034 301 C 449.111 301, 450.764 300.868, 452.733 299.034 C 455.681 296.288, 456.346 293.494, 454.812 290.295 C 452.496 285.464, 450.240 285.025, 428 285.078 C 416.725 285.105, 406.514 285.524, 405.308 286.010 M 63.682 291.969 C 58.649 292.942, 56.600 295.154, 56.600 299.615 C 56.600 302.217, 57.262 303.793, 58.916 305.133 C 61.001 306.821, 62.935 306.989, 78.366 306.820 C 93.411 306.656, 96.467 306.905, 103.431 308.863 C 112.393 311.383, 115.865 310.787, 117.870 306.385 C 120.953 299.619, 117.447 295.976, 105.051 293.066 C 98.119 291.438, 93.203 291.024, 81.876 291.115 C 73.969 291.178, 65.782 291.562, 63.682 291.969 M 169.311 310.631 C 168.089 313.816, 171.804 328.223, 176.110 337 C 183.817 352.707, 200.389 366.425, 219.675 373.060 C 227.306 375.686, 230.236 375.637, 229.820 372.890 C 229.574 371.268, 227.764 370.146, 222 368.043 C 195.380 358.329, 180.401 342.300, 175.155 317.914 C 173.834 311.769, 172.894 309.413, 171.670 309.176 C 170.748 308.998, 169.687 309.653, 169.311 310.631 M 245.380 375.452 C 244.379 378.062, 245.903 378.820, 253.595 379.541 C 259.827 380.125, 261.458 379.971, 262.753 378.676 C 264.051 377.378, 264.102 376.828, 263.042 375.550 C 261.248 373.389, 246.204 373.306, 245.380 375.452 M 365.308 398.019 C 360.109 400.091, 358.694 407.064, 362.775 410.505 C 371.609 417.953, 376.440 423.090, 383.529 432.572 C 392.399 444.435, 395.290 447, 399.791 447 C 405.429 447, 409.521 438.337, 405.470 434.975 C 404.629 434.277, 400.718 429.384, 396.781 424.103 C 381.905 404.151, 371.519 395.544, 365.308 398.019 M 157.821 404.250 C 150.276 410.652, 137.022 420.640, 133.481 422.592 C 132.392 423.193, 130.883 424.942, 130.130 426.479 C 128.947 428.893, 128.977 429.728, 130.351 432.610 C 132.104 436.286, 135.338 437.634, 139.750 436.527 C 143.243 435.651, 154.913 427.222, 166.500 417.204 C 174.420 410.357, 175.537 408.985, 175.807 405.769 C 176.203 401.048, 173.373 398, 168.593 398 C 165.866 398, 163.716 399.248, 157.821 404.250 M 255.029 434.691 C 253.120 437.117, 252.922 438.212, 253.526 442.993 C 254.359 449.590, 254.305 474.091, 253.439 482.501 C 252.901 487.723, 253.106 488.865, 255.024 491.303 C 256.889 493.674, 257.846 494.058, 261.263 493.802 C 264.329 493.573, 265.805 492.821, 267.400 490.677 C 269.401 487.987, 269.500 486.686, 269.500 463.006 C 269.500 439.327, 269.401 438.024, 267.400 435.329 C 265.803 433.178, 264.333 432.428, 261.263 432.198 C 257.848 431.943, 256.889 432.326, 255.029 434.691" stroke="none" fill="black" fill-rule="evenodd"/>
</svg>